# File created by Blade
# Date/Time:  Tue Sep 30 19:31:45 2014
#---------------------------------------------------------
:version 1.10
:name HOM
:units
  mass 1.0
  length 1.000000
  angle deg
:documentation
     Acclaim Skeleton File
:root
   axis xyz
   order TX TY TZ RX RY RZ
   position 0.000000 0.000000 0.000000
   orientation 0 0 0
:bonedata
   begin
      id 1
      name Spine_dum
      direction 0.000000 1.000000 0.000000
      length 3.241213
      axis 0.0 0.0 0.0 xyz
   end
   begin
      id 2
      name LeftUpLeg_dum
      direction 1.000000 0.000000 0.000000
      length 3.434019
      axis 0.0 0.0 0.0 xyz
   end
   begin
      id 3
      name RightUpLeg_dum
      direction -1.000000 0.000000 0.000000
      length 3.434019
      axis 0.0 0.0 0.0 xyz
   end
   begin
      id 4
      name Spine
      direction 0.000000 1.000000 0.000000
      length 0.000000
      axis 0.0 0.0 0.0 xyz
      dof rx ry rz
   end
   begin
      id 5
      name Spine_dum1
      direction 0.000000 1.000000 0.000000
      length 18.382958
      axis 0.0 0.0 0.0 xyz
   end
   begin
      id 6
      name Spine_dum2
      direction 0.000000 1.000000 0.000000
      length 12.828261
      axis 0.0 0.0 0.0 xyz
   end
   begin
      id 7
      name Spine_dum3
      direction 0.000000 1.000000 0.000000
      length 12.828261
      axis 0.0 0.0 0.0 xyz
   end
   begin
      id 8
      name Head
      direction 0.000000 1.000000 0.000000
      length 4.527550
      axis 0.0 0.0 0.0 xyz
      dof rx ry rz
   end
   begin
      id 9
      name LeftShoulder
      direction 1.000000 0.000000 0.000000
      length 7.748055
      axis 0.0 0.0 -90.0 xyz
      dof rx ry rz
   end
   begin
      id 10
      name LeftArm
      direction 1.000000 0.000000 0.000000
      length 10.635614
      axis 0.0 0.0 -90.0 xyz
      dof rx ry rz
   end
   begin
      id 11
      name LeftForeArm
      direction 1.000000 0.000000 0.000000
      length 8.346755
      axis 0.0 0.0 -90.0 xyz
      dof ry rz rx
   end
   begin
      id 12
      name LeftHand
      direction 0.000000 0.000000 0.000000
      length 0.000000
      axis 0.0 0.0 -90.0 xyz
      dof rx ry rz
   end
   begin
      id 13
      name LeftHand_dum1
      direction 0.000000 0.000000 0.000000
      length 0.000000
      axis 0.0 0.0 -90.0 xyz
   end
   begin
      id 14
      name LeftHand_dum2
      direction 1.000000 0.000000 0.000000
      length 3.937000
      axis 0.0 0.0 -90.0 xyz
   end
   begin
      id 15
      name LeftHandThumb1
      direction 0.000000 0.000000 1.000000
      length 3.937000
      axis 0.0 0.0 -90.0 xyz
      dof rx rz ry
   end
   begin
      id 16
      name RightShoulder
      direction -1.000000 0.000000 0.000000
      length 7.748055
      axis 0.0 0.0 90.0 xyz
      dof rx ry rz
   end
   begin
      id 17
      name RightArm
      direction -1.000000 0.000000 0.000000
      length 10.635614
      axis 0.0 0.0 90.0 xyz
      dof rx ry rz
   end
   begin
      id 18
      name RightForeArm
      direction -1.000000 0.000000 0.000000
      length 8.346755
      axis 0.0 0.0 90.0 xyz
      dof ry rz rx
   end
   begin
      id 19
      name RightHand
      direction 0.000000 0.000000 0.000000
      length 0.000000
      axis 0.0 0.0 90.0 xyz
      dof rx ry rz
   end
   begin
      id 20
      name RightHand_dum1
      direction 0.000000 0.000000 0.000000
      length 0.000000
      axis 0.0 0.0 90.0 xyz
   end
   begin
      id 21
      name RightHand_dum2
      direction -1.000000 0.000000 0.000000
      length 3.937000
      axis 0.0 0.0 90.0 xyz
   end
   begin
      id 22
      name RightHandThumb1
      direction 0.000000 0.000000 1.000000
      length 3.937000
      axis 0.0 0.0 90.0 xyz
      dof rx rz ry
   end
   begin
      id 23
      name LeftUpLeg
      direction 0.000000 -1.000000 0.000000
      length 15.713025
      axis 0.0 0.0 0.0 xyz
      dof rx ry rz
   end
   begin
      id 24
      name LeftLeg
      direction 0.000000 -1.000000 0.000000
      length 14.435119
      axis 0.0 0.0 0.0 xyz
      dof rx ry rz
   end
   begin
      id 25
      name LeftFoot
      direction 0.000000 -0.258819 0.965926
      length 4.938895
      axis 15.0 0.0 0.0 xyz
      dof rx ry rz
   end
   begin
      id 26
      name LeftToeBase
      direction 0.000000 0.000000 1.000000
      length 2.952750
      axis 0.0 0.0 0.0 xyz
      dof rx ry rz
   end
   begin
      id 27
      name RightUpLeg
      direction 0.000000 -1.000000 0.000000
      length 15.713025
      axis 0.0 0.0 0.0 xyz
      dof rx ry rz
   end
   begin
      id 28
      name RightLeg
      direction 0.000000 -1.000000 0.000000
      length 14.435119
      axis 0.0 0.0 0.0 xyz
      dof rx ry rz
   end
   begin
      id 29
      name RightFoot
      direction 0.000000 -0.258819 0.965926
      length 4.938895
      axis 15.0 0.0 0.0 xyz
      dof rx ry rz
   end
   begin
      id 30
      name RightToeBase
      direction 0.000000 0.000000 1.000000
      length 2.952750
      axis 0.0 0.0 0.0 xyz
      dof rx ry rz
   end
:hierarchy
   begin
      root Spine_dum LeftUpLeg_dum RightUpLeg_dum
      Spine_dum Spine
      LeftUpLeg_dum LeftUpLeg
      RightUpLeg_dum RightUpLeg
      Spine Spine_dum1 Spine_dum2 Spine_dum3
      Spine_dum1 Head
      Spine_dum2 LeftShoulder
      Spine_dum3 RightShoulder
      LeftShoulder LeftArm
      LeftArm LeftForeArm
      LeftForeArm LeftHand
      LeftHand LeftHand_dum1 LeftHand_dum2
      LeftHand_dum1 LeftHandThumb1
      RightShoulder RightArm
      RightArm RightForeArm
      RightForeArm RightHand
      RightHand RightHand_dum1 RightHand_dum2
      RightHand_dum1 RightHandThumb1
      LeftUpLeg LeftLeg
      LeftLeg LeftFoot
      LeftFoot LeftToeBase
      RightUpLeg RightLeg
      RightLeg RightFoot
      RightFoot RightToeBase
   end

# File created by Blade
# Date/Time:  Mon Sep 22 19:00:17 2014
# Frame Rate: 120.000 fps
#------------------------------------------------------
:FULLY-SPECIFIED
:DEGREES
1973
root -0.592265 32.822092 -4.160154 39.591238 -0.056103 0.614427
Spine -43.471833 -4.604795 -0.516268
Head 12.725488 -15.738500 -5.975016
LeftShoulder -14.927438 43.950549 7.537833
LeftArm 71.142076 33.558935 -51.591255
LeftForeArm 8.657887 0.000000 8.722813
LeftHand -18.740754 -0.000000 -5.486894
LeftHandThumb1 -26.253704 0.000000 33.147579
RightShoulder -28.867589 -21.284027 -42.550539
RightArm -230.189276 69.110672 -220.355304
RightForeArm 75.174162 0.000000 124.796985
RightHand 19.245479 -0.000000 0.167425
RightHandThumb1 -24.326973 -0.000000 -32.862282
LeftUpLeg -34.622900 6.500802 -2.222825
LeftLeg -0.353393 -0.000000 0.000000
LeftFoot -1.792942 0.258924 -2.914932
LeftToeBase 2.030139 -0.000000 -0.000000
RightUpLeg -35.349471 -10.739135 5.316033
RightLeg -2.158941 -0.000000 0.000000
RightFoot -4.720918 -4.113271 19.068512
RightToeBase 16.274503 -0.000000 -0.000000
1974
root -0.593071 32.822670 -4.164991 39.579184 -0.080562 0.607327
Spine -43.438634 -4.602033 -0.517139
Head 12.812026 -15.681380 -5.975169
LeftShoulder -14.905883 43.970375 7.551700
LeftArm 71.140700 33.517415 -51.644589
LeftForeArm 8.687734 -0.000000 8.865504
LeftHand -18.719763 -0.000000 -5.452338
LeftHandThumb1 -26.253704 0.000000 33.147579
RightShoulder -28.825476 -21.254060 -42.550732
RightArm -230.232459 68.971450 -220.344924
RightForeArm 75.172813 -0.000000 124.699903
RightHand 19.270689 -0.000000 0.257467
RightHandThumb1 -24.326973 -0.000000 -32.862282
LeftUpLeg -34.607919 6.501888 -2.214401
LeftLeg -0.370948 -0.000000 0.000000
LeftFoot -1.777637 0.289685 -2.912449
LeftToeBase 2.027020 -0.000000 -0.000000
RightUpLeg -35.346362 -10.734411 5.319467
RightLeg -2.165491 -0.000000 0.000000
RightFoot -4.688467 -4.097451 19.031177
RightToeBase 16.254173 -0.000000 -0.000000
1975
root -0.593044 32.822394 -4.167112 39.524286 -0.142505 0.606095
Spine -43.371870 -4.578714 -0.547093
Head 12.921834 -15.630688 -5.991628
LeftShoulder -14.871961 43.986417 7.576411
LeftArm 71.092774 33.473898 -51.736410
LeftForeArm 8.749498 -0.000000 9.016901
LeftHand -18.723119 -0.000000 -5.404899
LeftHandThumb1 -26.253704 0.000000 33.147579
RightShoulder -28.774695 -21.205575 -42.552615
RightArm -230.346378 68.838546 -220.435116
RightForeArm 75.206916 -0.000000 124.636899
RightHand 19.299438 -0.000000 0.295092
RightHandThumb1 -24.326973 -0.000000 -32.862282
LeftUpLeg -34.540667 6.545910 -2.240718
LeftLeg -0.391882 -0.000000 0.000000
LeftFoot -1.772916 0.291977 -2.915992
LeftToeBase 2.010243 -0.000000 -0.000000
RightUpLeg -35.293969 -10.723921 5.295400
RightLeg -2.182948 -0.000000 0.000000
RightFoot -4.647446 -4.047877 19.053103
RightToeBase 16.220990 -0.000000 -0.000000
1976
root -0.593157 32.823158 -4.170661 39.516907 -0.167230 0.605732
Spine -43.354773 -4.576367 -0.547589
Head 13.035675 -15.563063 -6.017703
LeftShoulder -14.847293 44.008633 7.591294
LeftArm 71.083911 33.442924 -51.765481
LeftForeArm 8.771435 0.000000 9.162128
LeftHand -18.746090 -0.000000 -5.282197
LeftHandThumb1 -26.253704 0.000000 33.147579
RightShoulder -28.737007 -21.165396 -42.555227
RightArm -230.490754 68.704118 -220.577684
RightForeArm 75.250728 -0.000000 124.605145
RightHand 19.286313 -0.000000 0.211199
RightHandThumb1 -24.326973 -0.000000 -32.862282
LeftUpLeg -34.530141 6.532508 -2.232720
LeftLeg -0.401295 -0.000000 0.000000
LeftFoot -1.770023 0.333813 -2.917653
LeftToeBase 2.076550 -0.000000 -0.000000
RightUpLeg -35.290469 -10.728856 5.300277
RightLeg -2.199667 -0.000000 0.000000
RightFoot -4.632773 -4.034719 19.012184
RightToeBase 16.281348 -0.000000 -0.000000
1977
root -0.594392 32.823743 -4.173683 39.506721 -0.204559 0.601838
Spine -43.336669 -4.569366 -0.549294
Head 13.145696 -15.465228 -6.036229
LeftShoulder -14.833143 44.021931 7.602346
LeftArm 71.055222 33.411517 -51.816874
LeftForeArm 8.772825 0.000000 9.288663
LeftHand -18.770097 -0.000000 -5.226042
LeftHandThumb1 -26.253704 0.000000 33.147579
RightShoulder -28.690494 -21.099136 -42.550673
RightArm -230.565566 68.572839 -220.700846
RightForeArm 75.218217 0.000000 124.637866
RightHand 19.296837 0.000000 0.230626
RightHandThumb1 -24.326973 -0.000000 -32.862282
LeftUpLeg -34.513265 6.543139 -2.235538
LeftLeg -0.416713 -0.000000 0.000000
LeftFoot -1.753091 0.362809 -2.929164
LeftToeBase 2.057459 -0.000000 -0.000000
RightUpLeg -35.282931 -10.711373 5.290686
RightLeg -2.211985 -0.000000 0.000000
RightFoot -4.594581 -4.024021 19.012862
RightToeBase 16.230987 -0.000000 -0.000000
1978
root -0.594172 32.824369 -4.176495 39.492991 -0.240713 0.599045
Spine -43.318383 -4.551958 -0.557585
Head 13.262447 -15.358948 -6.052291
LeftShoulder -14.804349 44.027430 7.623015
LeftArm 71.021285 33.389752 -51.860755
LeftForeArm 8.768285 0.000000 9.418697
LeftHand -18.789617 0.000000 -5.176788
LeftHandThumb1 -26.253704 0.000000 33.147579
RightShoulder -28.644701 -20.980642 -42.572067
RightArm -230.816254 68.476051 -221.015927
RightForeArm 75.206642 -0.000000 124.700178
RightHand 19.309600 -0.000000 0.137438
RightHandThumb1 -24.326973 -0.000000 -32.862282
LeftUpLeg -34.495180 6.556945 -2.244376
LeftLeg -0.429020 -0.000000 0.000000
LeftFoot -1.748453 0.390624 -2.932515
LeftToeBase 2.054825 -0.000000 -0.000000
RightUpLeg -35.266618 -10.692453 5.272534
RightLeg -2.231293 -0.000000 0.000000
RightFoot -4.571895 -4.005804 19.051637
RightToeBase 16.242627 -0.000000 -0.000000
1979
root -0.591702 32.823946 -4.173678 39.438462 -0.327094 0.611549
Spine -43.278403 -4.511440 -0.604584
Head 13.412417 -15.224761 -6.085159
LeftShoulder -14.782553 44.023718 7.646717
LeftArm 70.972783 33.381953 -51.919244
LeftForeArm 8.784524 -0.000000 9.497192
LeftHand -18.766318 0.000000 -5.202350
LeftHandThumb1 -26.253704 0.000000 33.147579
RightShoulder -28.568167 -20.843315 -42.604160
RightArm -231.029564 68.386471 -221.336798
RightForeArm 74.952345 0.000000 124.843244
RightHand 19.282626 -0.000000 -0.129976
RightHandThumb1 -24.326973 -0.000000 -32.862282
LeftUpLeg -34.404471 6.602475 -2.298550
LeftLeg -0.474630 -0.000000 0.000000
LeftFoot -1.732961 0.412060 -2.918904
LeftToeBase 2.062063 -0.000000 -0.000000
RightUpLeg -35.204659 -10.658612 5.205203
RightLeg -2.246553 -0.000000 0.000000
RightFoot -4.569148 -3.986285 19.012028
RightToeBase 16.271566 -0.000000 -0.000000
